<?xml version="1.0" encoding="UTF-8" standalone="no"?>
<!DOCTYPE svg PUBLIC "-//W3C//DTD SVG 1.1//EN"
 "http://www.w3.org/Graphics/SVG/1.1/DTD/svg11.dtd">
<!-- Generated by graphviz version 2.26.0 (20091210.2329)
 -->
<!-- Title: G Pages: 1 -->
<svg width="652pt" height="860pt"
 viewBox="0.00 0.00 652.00 860.00" xmlns="http://www.w3.org/2000/svg" xmlns:xlink="http://www.w3.org/1999/xlink">
<g id="graph1" class="graph" transform="scale(1 1) rotate(0) translate(4 856)">
<title>G</title>
<polygon fill="white" stroke="white" points="-4,5 -4,-856 649,-856 649,5 -4,5"/>
<!-- start -->
<g id="node1" class="node"><title>start</title>
<ellipse fill="none" stroke="black" cx="322" cy="-833" rx="27.7881" ry="19.0919"/>
<text text-anchor="middle" x="322" y="-829.9" font-family="Times Roman,serif" font-size="14.00">start</text>
</g>
<!-- build -->
<g id="node3" class="node"><title>build</title>
<ellipse fill="none" stroke="black" cx="322" cy="-759" rx="31.1127" ry="19.0919"/>
<text text-anchor="middle" x="322" y="-755.9" font-family="Times Roman,serif" font-size="14.00">build</text>
</g>
<!-- start&#45;&gt;build -->
<g id="edge2" class="edge"><title>start&#45;&gt;build</title>
<path fill="none" stroke="black" d="M322,-813.943C322,-806.149 322,-796.954 322,-788.338"/>
<polygon fill="black" stroke="black" points="325.5,-788.249 322,-778.249 318.5,-788.249 325.5,-788.249"/>
</g>
<!-- component_unit_test_a -->
<g id="node5" class="node"><title>component_unit_test_a</title>
<ellipse fill="none" stroke="black" cx="101" cy="-685" rx="101.116" ry="19.0919"/>
<text text-anchor="middle" x="101" y="-681.9" font-family="Times Roman,serif" font-size="14.00">component_unit_test_a</text>
</g>
<!-- build&#45;&gt;component_unit_test_a -->
<g id="edge4" class="edge"><title>build&#45;&gt;component_unit_test_a</title>
<path fill="none" stroke="black" d="M294.457,-749.777C261.109,-738.611 204.007,-719.491 160.459,-704.909"/>
<polygon fill="black" stroke="black" points="161.421,-701.54 150.827,-701.684 159.198,-708.178 161.421,-701.54"/>
</g>
<!-- component_unit_test_b -->
<g id="node8" class="node"><title>component_unit_test_b</title>
<ellipse fill="none" stroke="black" cx="322" cy="-685" rx="101.823" ry="19.0919"/>
<text text-anchor="middle" x="322" y="-681.9" font-family="Times Roman,serif" font-size="14.00">component_unit_test_b</text>
</g>
<!-- build&#45;&gt;component_unit_test_b -->
<g id="edge7" class="edge"><title>build&#45;&gt;component_unit_test_b</title>
<path fill="none" stroke="black" d="M322,-739.943C322,-732.149 322,-722.954 322,-714.338"/>
<polygon fill="black" stroke="black" points="325.5,-714.249 322,-704.249 318.5,-714.249 325.5,-714.249"/>
</g>
<!-- component_unit_test_c -->
<g id="node10" class="node"><title>component_unit_test_c</title>
<ellipse fill="none" stroke="black" cx="543" cy="-685" rx="101.116" ry="19.0919"/>
<text text-anchor="middle" x="543" y="-681.9" font-family="Times Roman,serif" font-size="14.00">component_unit_test_c</text>
</g>
<!-- build&#45;&gt;component_unit_test_c -->
<g id="edge10" class="edge"><title>build&#45;&gt;component_unit_test_c</title>
<path fill="none" stroke="black" d="M349.543,-749.777C382.891,-738.611 439.993,-719.491 483.541,-704.909"/>
<polygon fill="black" stroke="black" points="484.802,-708.178 493.173,-701.684 482.579,-701.54 484.802,-708.178"/>
</g>
<!-- image_build_and_push -->
<g id="node6" class="node"><title>image_build_and_push</title>
<ellipse fill="none" stroke="black" cx="322" cy="-611" rx="101.116" ry="19.0919"/>
<text text-anchor="middle" x="322" y="-607.9" font-family="Times Roman,serif" font-size="14.00">image_build_and_push</text>
</g>
<!-- component_unit_test_a&#45;&gt;image_build_and_push -->
<g id="edge5" class="edge"><title>component_unit_test_a&#45;&gt;image_build_and_push</title>
<path fill="none" stroke="black" d="M150.597,-668.393C183.749,-657.292 227.539,-642.63 262.558,-630.904"/>
<polygon fill="black" stroke="black" points="263.816,-634.174 272.187,-627.679 261.593,-627.536 263.816,-634.174"/>
</g>
<!-- generate_dev_config_file -->
<g id="node12" class="node"><title>generate_dev_config_file</title>
<ellipse fill="none" stroke="black" cx="322" cy="-537" rx="109.101" ry="19.0919"/>
<text text-anchor="middle" x="322" y="-533.9" font-family="Times Roman,serif" font-size="14.00">generate_dev_config_file</text>
</g>
<!-- image_build_and_push&#45;&gt;generate_dev_config_file -->
<g id="edge13" class="edge"><title>image_build_and_push&#45;&gt;generate_dev_config_file</title>
<path fill="none" stroke="black" d="M322,-591.943C322,-584.149 322,-574.954 322,-566.338"/>
<polygon fill="black" stroke="black" points="325.5,-566.249 322,-556.249 318.5,-566.249 325.5,-566.249"/>
</g>
<!-- component_unit_test_b&#45;&gt;image_build_and_push -->
<g id="edge8" class="edge"><title>component_unit_test_b&#45;&gt;image_build_and_push</title>
<path fill="none" stroke="black" d="M322,-665.943C322,-658.149 322,-648.954 322,-640.338"/>
<polygon fill="black" stroke="black" points="325.5,-640.249 322,-630.249 318.5,-640.249 325.5,-640.249"/>
</g>
<!-- component_unit_test_c&#45;&gt;image_build_and_push -->
<g id="edge11" class="edge"><title>component_unit_test_c&#45;&gt;image_build_and_push</title>
<path fill="none" stroke="black" d="M493.403,-668.393C460.251,-657.292 416.461,-642.63 381.442,-630.904"/>
<polygon fill="black" stroke="black" points="382.407,-627.536 371.813,-627.679 380.184,-634.174 382.407,-627.536"/>
</g>
<!-- build_installer_package -->
<g id="node14" class="node"><title>build_installer_package</title>
<ellipse fill="none" stroke="black" cx="322" cy="-463" rx="103.238" ry="19.0919"/>
<text text-anchor="middle" x="322" y="-459.9" font-family="Times Roman,serif" font-size="14.00">build_installer_package</text>
</g>
<!-- generate_dev_config_file&#45;&gt;build_installer_package -->
<g id="edge15" class="edge"><title>generate_dev_config_file&#45;&gt;build_installer_package</title>
<path fill="none" stroke="black" d="M322,-517.943C322,-510.149 322,-500.954 322,-492.338"/>
<polygon fill="black" stroke="black" points="325.5,-492.249 322,-482.249 318.5,-492.249 325.5,-492.249"/>
</g>
<!-- start_bdh_infra_tools_test -->
<g id="node16" class="node"><title>start_bdh_infra_tools_test</title>
<ellipse fill="none" stroke="black" cx="322" cy="-389" rx="111.222" ry="19.0919"/>
<text text-anchor="middle" x="322" y="-385.9" font-family="Times Roman,serif" font-size="14.00">start_bdh_infra_tools_test</text>
</g>
<!-- build_installer_package&#45;&gt;start_bdh_infra_tools_test -->
<g id="edge17" class="edge"><title>build_installer_package&#45;&gt;start_bdh_infra_tools_test</title>
<path fill="none" stroke="black" d="M322,-443.943C322,-436.149 322,-426.954 322,-418.338"/>
<polygon fill="black" stroke="black" points="325.5,-418.249 322,-408.249 318.5,-418.249 325.5,-418.249"/>
</g>
<!-- create_k8s_cluster_and_install_datahub -->
<g id="node18" class="node"><title>create_k8s_cluster_and_install_datahub</title>
<ellipse fill="none" stroke="black" cx="322" cy="-315" rx="164.756" ry="19.0919"/>
<text text-anchor="middle" x="322" y="-311.9" font-family="Times Roman,serif" font-size="14.00">create_k8s_cluster_and_install_datahub</text>
</g>
<!-- start_bdh_infra_tools_test&#45;&gt;create_k8s_cluster_and_install_datahub -->
<g id="edge19" class="edge"><title>start_bdh_infra_tools_test&#45;&gt;create_k8s_cluster_and_install_datahub</title>
<path fill="none" stroke="black" d="M322,-369.943C322,-362.149 322,-352.954 322,-344.338"/>
<polygon fill="black" stroke="black" points="325.5,-344.249 322,-334.249 318.5,-344.249 325.5,-344.249"/>
</g>
<!-- run_test_a -->
<g id="node20" class="node"><title>run_test_a</title>
<ellipse fill="none" stroke="black" cx="141" cy="-241" rx="51.1176" ry="19.0919"/>
<text text-anchor="middle" x="141" y="-237.9" font-family="Times Roman,serif" font-size="14.00">run_test_a</text>
</g>
<!-- create_k8s_cluster_and_install_datahub&#45;&gt;run_test_a -->
<g id="edge21" class="edge"><title>create_k8s_cluster_and_install_datahub&#45;&gt;run_test_a</title>
<path fill="none" stroke="black" d="M277.258,-296.708C249.165,-285.222 213.088,-270.472 185.114,-259.036"/>
<polygon fill="black" stroke="black" points="186.165,-255.684 175.584,-255.139 183.516,-262.164 186.165,-255.684"/>
</g>
<!-- run_test_b -->
<g id="node23" class="node"><title>run_test_b</title>
<ellipse fill="none" stroke="black" cx="262" cy="-241" rx="51.8276" ry="19.0919"/>
<text text-anchor="middle" x="262" y="-237.9" font-family="Times Roman,serif" font-size="14.00">run_test_b</text>
</g>
<!-- create_k8s_cluster_and_install_datahub&#45;&gt;run_test_b -->
<g id="edge24" class="edge"><title>create_k8s_cluster_and_install_datahub&#45;&gt;run_test_b</title>
<path fill="none" stroke="black" d="M306.549,-295.943C299.459,-287.199 290.939,-276.691 283.257,-267.217"/>
<polygon fill="black" stroke="black" points="285.795,-264.79 276.779,-259.227 280.358,-269.199 285.795,-264.79"/>
</g>
<!-- run_test_c -->
<g id="node25" class="node"><title>run_test_c</title>
<ellipse fill="none" stroke="black" cx="383" cy="-241" rx="51.1176" ry="19.0919"/>
<text text-anchor="middle" x="383" y="-237.9" font-family="Times Roman,serif" font-size="14.00">run_test_c</text>
</g>
<!-- create_k8s_cluster_and_install_datahub&#45;&gt;run_test_c -->
<g id="edge27" class="edge"><title>create_k8s_cluster_and_install_datahub&#45;&gt;run_test_c</title>
<path fill="none" stroke="black" d="M337.709,-295.943C344.917,-287.199 353.579,-276.691 361.389,-267.217"/>
<polygon fill="black" stroke="black" points="364.315,-269.169 367.975,-259.227 358.914,-264.717 364.315,-269.169"/>
</g>
<!-- run_test_d -->
<g id="node27" class="node"><title>run_test_d</title>
<ellipse fill="none" stroke="black" cx="504" cy="-241" rx="51.8276" ry="19.0919"/>
<text text-anchor="middle" x="504" y="-237.9" font-family="Times Roman,serif" font-size="14.00">run_test_d</text>
</g>
<!-- create_k8s_cluster_and_install_datahub&#45;&gt;run_test_d -->
<g id="edge30" class="edge"><title>create_k8s_cluster_and_install_datahub&#45;&gt;run_test_d</title>
<path fill="none" stroke="black" d="M366.989,-296.708C395.237,-285.222 431.514,-270.472 459.642,-259.036"/>
<polygon fill="black" stroke="black" points="461.279,-262.148 469.225,-255.139 458.643,-255.664 461.279,-262.148"/>
</g>
<!-- log_collection -->
<g id="node21" class="node"><title>log_collection</title>
<ellipse fill="none" stroke="black" cx="322" cy="-167" rx="65.9683" ry="19.0919"/>
<text text-anchor="middle" x="322" y="-163.9" font-family="Times Roman,serif" font-size="14.00">log_collection</text>
</g>
<!-- run_test_a&#45;&gt;log_collection -->
<g id="edge22" class="edge"><title>run_test_a&#45;&gt;log_collection</title>
<path fill="none" stroke="black" d="M175.471,-226.907C203.543,-215.43 243.472,-199.105 274.561,-186.395"/>
<polygon fill="black" stroke="black" points="275.971,-189.6 283.903,-182.576 273.322,-183.12 275.971,-189.6"/>
</g>
<!-- k8s_cluster_delete -->
<g id="node29" class="node"><title>k8s_cluster_delete</title>
<ellipse fill="none" stroke="black" cx="322" cy="-93" rx="82.2301" ry="19.0919"/>
<text text-anchor="middle" x="322" y="-89.9" font-family="Times Roman,serif" font-size="14.00">k8s_cluster_delete</text>
</g>
<!-- log_collection&#45;&gt;k8s_cluster_delete -->
<g id="edge33" class="edge"><title>log_collection&#45;&gt;k8s_cluster_delete</title>
<path fill="none" stroke="black" d="M322,-147.943C322,-140.149 322,-130.954 322,-122.338"/>
<polygon fill="black" stroke="black" points="325.5,-122.249 322,-112.249 318.5,-122.249 325.5,-122.249"/>
</g>
<!-- run_test_b&#45;&gt;log_collection -->
<g id="edge25" class="edge"><title>run_test_b&#45;&gt;log_collection</title>
<path fill="none" stroke="black" d="M276.831,-222.708C283.989,-213.88 292.709,-203.125 300.572,-193.427"/>
<polygon fill="black" stroke="black" points="303.343,-195.568 306.922,-185.596 297.906,-191.159 303.343,-195.568"/>
</g>
<!-- run_test_c&#45;&gt;log_collection -->
<g id="edge28" class="edge"><title>run_test_c&#45;&gt;log_collection</title>
<path fill="none" stroke="black" d="M367.921,-222.708C360.645,-213.88 351.779,-203.125 343.785,-193.427"/>
<polygon fill="black" stroke="black" points="346.39,-191.086 337.329,-185.596 340.989,-195.538 346.39,-191.086"/>
</g>
<!-- run_test_d&#45;&gt;log_collection -->
<g id="edge31" class="edge"><title>run_test_d&#45;&gt;log_collection</title>
<path fill="none" stroke="black" d="M468.909,-226.732C440.732,-215.275 400.879,-199.072 369.789,-186.431"/>
<polygon fill="black" stroke="black" points="371.026,-183.156 360.445,-182.631 368.39,-189.64 371.026,-183.156"/>
</g>
<!-- job_report -->
<g id="node30" class="node"><title>job_report</title>
<ellipse fill="none" stroke="black" cx="322" cy="-19" rx="51.1176" ry="19.0919"/>
<text text-anchor="middle" x="322" y="-15.9" font-family="Times Roman,serif" font-size="14.00">job_report</text>
</g>
<!-- k8s_cluster_delete&#45;&gt;job_report -->
<g id="edge34" class="edge"><title>k8s_cluster_delete&#45;&gt;job_report</title>
<path fill="none" stroke="black" d="M322,-73.9432C322,-66.1493 322,-56.9538 322,-48.3381"/>
<polygon fill="black" stroke="black" points="325.5,-48.2494 322,-38.2495 318.5,-48.2495 325.5,-48.2494"/>
</g>
</g>

<g transform="translate(0.000000,17.000000) scale(0.100000,-0.100000)"
fill="#000000" stroke="none">
<path d="M21 157 c-29 -35 -16 -97 20 -97 15 0 19 -5 15 -16 -3 -9 -6 -20 -6
-25 0 -5 -4 -9 -10 -9 -14 0 -12 27 3 33 6 3 2 6 -10 6 -30 1 -31 -35 -3 -44
28 -9 47 9 55 51 3 20 9 42 12 50 3 8 -1 14 -11 14 -9 0 -16 -8 -16 -19 0 -26
-15 -34 -30 -16 -13 16 -6 48 16 70 14 13 13 15 -4 15 -11 0 -25 -6 -31 -13z"/>
<path d="M80 150 c0 -13 5 -20 13 -17 6 2 12 10 12 17 0 7 -6 15 -12 18 -8 2
-13 -5 -13 -18z"/>
<path d="M347 164 c-13 -13 -7 -24 14 -24 11 0 19 5 17 12 -5 14 -22 21 -31
12z"/>
<path d="M103 85 c-9 -40 -8 -45 8 -45 13 0 19 9 21 33 2 24 7 31 21 29 10 -2
17 3 17 13 0 10 -9 15 -28 15 -26 0 -30 -5 -39 -45z"/>
<path d="M175 101 c-24 -48 -13 -59 64 -60 63 -1 69 1 79 25 15 31 15 64 1 64
-6 0 -8 -8 -5 -18 4 -10 -1 -27 -10 -38 -14 -18 -15 -17 -9 19 5 29 3 37 -9
37 -9 0 -18 -13 -22 -35 -3 -19 -10 -35 -14 -35 -4 0 -4 16 0 35 8 35 8 35
-26 35 -27 0 -36 -6 -49 -29z m47 -6 c-5 -28 -22 -44 -22 -21 0 21 11 46 20
46 4 0 5 -11 2 -25z"/>
<path d="M340 116 c0 -7 -3 -28 -6 -45 -6 -26 -3 -31 13 -31 10 0 25 6 32 12
11 10 13 10 7 1 -5 -9 3 -13 28 -13 25 0 36 4 36 15 0 8 -4 15 -10 15 -5 0
-10 -4 -10 -10 0 -5 -5 -10 -11 -10 -6 0 -2 12 9 28 36 51 36 52 -2 52 -25 0
-36 -4 -36 -15 0 -8 5 -15 10 -15 6 0 10 5 10 12 0 6 3 9 6 6 9 -10 -19 -46
-39 -52 -17 -4 -18 -1 -13 30 6 27 4 34 -9 34 -8 0 -15 -6 -15 -14z"/>
<path d="M472 118 c-7 -7 -12 -27 -12 -46 0 -30 2 -33 27 -30 17 2 32 12 39
27 7 13 18 28 26 33 10 8 9 8 -4 4 -12 -3 -18 0 -18 9 0 18 -41 20 -58 3z m29
-51 c-13 -13 -15 11 -4 40 7 16 8 15 11 -6 2 -13 -1 -28 -7 -34z"/>
</g>
</svg>
